<?xml version="1.0"?>
<svg xmlns="http://www.w3.org/2000/svg" height="512px" viewBox="0 0 60 60" width="512px" class=""><g><g id="017---Golf-Green" fill="none"><g id="Icons"><path id="Shape" d="m42 5.4v14.5c.0025296.2907122-.12158.5681337-.34.76-8.55 7.44-17.14-8.38-25.66-.3v-17c8.11-7.69 16.22 6.25 24.45 1.21.3063872-.20177911.6986641-.2195909 1.0220769-.04640861.3234127.1731823.5260316.50955125.5279231.87640861z" fill="#f44335" data-original="#F44335" class=""/><path id="Shape" d="m40.45 4.57c-.4599325.2844953-.9453622.52553622-1.45.72v14.61c.0025296.2907122-.12158.5681337-.34.76-1.05015.9568022-2.3386034 1.6131189-3.73 1.9 2.4187885.4976624 4.9285752-.2108955 6.73-1.9.21842-.1918663.3425296-.4692878.34-.76v-14.5c-.0018915-.36685736-.2045104-.70322631-.5279231-.87640861-.3234128-.17318229-.7156897-.1553705-1.0220769.04640861z" fill="#c81e1e" data-original="#C81E1E" class="" data-old_color="#c81e1e" style="fill:#E74C3C"/><path id="Shape" d="m54 56.36c-5.8055754 1.3519039-11.7179593 2.1950962-17.67 2.52-7.7135247.4217732-15.4488074-.1903231-23-1.82-4.68-1.06-12.59-3.22-12.33-8.73.21-4.34 6.31-7.26 10.28-8.75 11.19-4.18 23.86-4.08 35.84-2.84 1.36.13 3.65.44 3.6 2-.06 2.39-4.71 1.58-5.08 4-.52 3.43 6.55 5.32 9.07 6.41 1.3946579.4891961 2.6291196 1.3502073 3.57 2.49 1.91 2.88-1.99 4.07-4.28 4.72z" fill="#549414" data-original="#549414" class="active-path" data-old_color="#549414" style="fill:#2ECC71"/><path id="Shape" d="m51 56.36c-5.8055754 1.3519039-11.7179593 2.1950962-17.67 2.52-6.7171868.2556733-13.4392999-.3560389-20-1.82-4.68-1.06-12.59-3.22-12.33-8.73.21-4.34 6.31-7.26 10.28-8.75 6.699047-2.3713131 13.7536399-3.5820246 20.86-3.58 3.91.05 8.1.33 12 .73 1.36.13 3.65.44 3.6 2-.06 2.39-4.71 1.58-5.08 4-.52 3.43 6.55 5.32 9.07 6.41 1.3946579.4891961 2.6291196 1.3502073 3.57 2.49 1.89 2.89-2.01 4.08-4.3 4.73z" fill="#60a917" data-original="#60A917" class="" data-old_color="#60a917" style="fill:#2ECC71"/><ellipse id="Oval" cx="16" cy="47.5" fill="#37474f" rx="4" ry="2.5" data-original="#37474F" class=""/><circle id="Oval" cx="41" cy="50" fill="#f5f5f5" r="3" data-original="#F5F5F5" class=""/></g><g id="Layer_2" fill="#000" transform="translate(-1 -1)"><path id="Shape" d="m56.11 49.29c-2.11-.93-8.84-2.86-8.47-5.29.23-1.48 5-1 5.09-4.13.07-2.63-3.37-3-4.5-3.08-10.06-1-20.32-1.31-30.23 1.07v-16c7.77-6.73 16.3 8.45 25.32.61.4503718-.3950728.6999194-.9712342.68-1.57v-14.5c-.001216-.73069458-.4008185-1.40256775-1.042293-1.75246289-.6414744-.34989514-1.4227067-.32211374-2.037707.07246289-7.48 4.66-15.87-9.32-24.61-1.09-.49.46-.31-.86-.31 34.7-5.66 1.59-14.71 5.11-15 10.95-.32 6.79 9.48 8.95 13.17 9.72 12.68 2.79 24.31 2.32 35.95.35 3.07-.52 9.47-1.52 10.51-4.37.3257278-.9846376.134043-2.0670927-.51-2.88-1.0512798-1.2892679-2.4393227-2.2619364-4.01-2.81zm-14.11-42.89v14.51c-7.44 6.46-15.35-7-24-1.6v-14.51c7.39-6.41 15.33 7.01 24 1.6zm16.76 47.94c-.63 1.7-7.24 2.79-9 3.08-11.32 1.91-22.68 2.42-35.19-.34-8-1.75-11.76-4.27-11.59-7.7.22-4.55 8.61-7.68 13-9v4.65c-2.31.31-4 1.71-4 3.43 0 2 2.2 3.5 5 3.5s5-1.54 5-3.5c0-1.72-1.69-3.12-4-3.43v-5.2c9.77-2.45 20-2.13 30-1.14 2.25.22 2.71.69 2.7 1 0 1.25-4.61.86-5.07 3.88-.61 4.43 6.89 6.34 9.71 7.55 1.2150946.427861 2.2974458 1.1655144 3.14 2.14.45.66.33.97.3 1.08zm-41.76-5.34c.5522847 0 1-.4477153 1-1v-.9c1.19.23 2 .84 2 1.4s-1.28 1.5-3 1.5-3-.79-3-1.5.81-1.17 2-1.4v.9c0 .5522847.4477153 1 1 1z" data-original="#000000" class="" style="fill:#000000"/><path id="Shape" d="m42 47c-2.209139 0-4 1.790861-4 4s1.790861 4 4 4 4-1.790861 4-4-1.790861-4-4-4zm0 6c-1.1045695 0-2-.8954305-2-2s.8954305-2 2-2 2 .8954305 2 2-.8954305 2-2 2z" data-original="#000000" class="" style="fill:#000000"/></g></g></g> </svg>
