<?xml version="1.0"?>
<svg xmlns="http://www.w3.org/2000/svg" viewBox="0 0 64 64" width="512px" height="512px" class=""><g><g id="flat"><polygon points="21 35 11 31 21 27 21 35" style="fill:#E74C3C" data-original="#DD3E46" class="" data-old_color="#DD3E46"/><rect x="20" y="27" width="2" height="18" style="fill:#d3843d" data-original="#D3843D" class=""/><path d="M4,47,2,47c0-2.767,1.463-8,7-8s7,5.233,7,8H14c0-.243-.084-6-5-6S4,46.757,4,47Z" style="fill:#0192A4" data-original="#4481C3" class="" data-old_color="#4481C3"/><polygon points="42 45 22 45 24 35 40 35 42 45" style="fill:#FFBA57" data-original="#F1C056" class="" data-old_color="#F1C056"/><polygon points="47 61 17 61 20 45 44 45 47 61" style="fill:#FFD393" data-original="#FFD782" class="active-path" data-old_color="#FFD782"/><polygon points="38 35 26 35 27 27 37 27 38 35" style="fill:#FFD393" data-original="#FFD782" class="active-path" data-old_color="#FFD782"/><polygon points="35 27 29 27 32 17 35 27" style="fill:#FFBA57" data-original="#F1C056" class="" data-old_color="#F1C056"/><polygon points="51 47 61 43 51 39 51 47" style="fill:#E74C3C" data-original="#DD3E46" class="" data-old_color="#DD3E46"/><rect x="50" y="39" width="2" height="23" style="fill:#d3843d" data-original="#D3843D" class=""/><circle cx="24" cy="55" r="2" style="fill:#d3843d" data-original="#D3843D" class=""/><circle cx="32" cy="55" r="2" style="fill:#d3843d" data-original="#D3843D" class=""/><circle cx="40" cy="55" r="2" style="fill:#d3843d" data-original="#D3843D" class=""/><rect x="24" y="38" width="4" height="2" style="fill:#FFD393" data-original="#FFD782" class="active-path" data-old_color="#FFD782"/><rect x="30" y="38" width="2" height="2" style="fill:#FFD393" data-original="#FFD782" class="active-path" data-old_color="#FFD782"/><rect x="36" y="38" width="5" height="2" style="fill:#FFD393" data-original="#FFD782" class="active-path" data-old_color="#FFD782"/><rect x="29" y="32" width="2" height="3" style="fill:#d3843d" data-original="#D3843D" class=""/><rect x="33" y="32" width="2" height="3" style="fill:#d3843d" data-original="#D3843D" class=""/><path d="M51.58,4.159,55,11l3.787-7.575C57.012,3.639,54.56,3.906,51.58,4.159Z" style="fill:#E74C3C" data-original="#DD3E46" class="" data-old_color="#DD3E46"/><path d="M40.42,4.84,44,12l3.774-7.548C45.517,4.606,43.048,4.742,40.42,4.84Z" style="fill:#E74C3C" data-original="#DD3E46" class="" data-old_color="#DD3E46"/><path d="M32,5q-1.79,0-3.515-.029L32,12l3.515-7.029Q33.789,5,32,5Z" style="fill:#E74C3C" data-original="#DD3E46" class="" data-old_color="#DD3E46"/><path d="M16.226,4.452,20,12l3.58-7.16C20.952,4.742,18.483,4.606,16.226,4.452Z" style="fill:#E74C3C" data-original="#DD3E46" class="" data-old_color="#DD3E46"/><path d="M5.213,3.425,9,11l3.42-6.841C9.44,3.906,6.988,3.639,5.213,3.425Z" style="fill:#E74C3C" data-original="#DD3E46" class="" data-old_color="#DD3E46"/><path d="M32,6A227.837,227.837,0,0,1,2.865,4.134a1,1,0,0,1,.27-1.983A225.349,225.349,0,0,0,32,4,225.349,225.349,0,0,0,60.865,2.151a1,1,0,0,1,.27,1.983A227.837,227.837,0,0,1,32,6Z" style="fill:#FFBA57" data-original="#F3BB59" class="" data-old_color="#F3BB59"/><path d="M15.773,50.366A1,1,0,0,0,15,50H3a1,1,0,0,0-.98,1.2l2,10A1,1,0,0,0,5,62h8a1,1,0,0,0,.98-.8l2-10A1,1,0,0,0,15.773,50.366Z" style="fill:#cfdfe8" data-original="#CFDFE8"/><rect x="2" y="46" width="14" height="6" rx="1" ry="1" style="fill:#00ACC1" data-original="#6896BB" class="" data-old_color="#6896BB"/><rect x="9" y="55" width="2" height="2" style="fill:#00ACC1" data-original="#6896BB" class="" data-old_color="#6896BB"/><circle cx="58" cy="18" r="3" style="fill:#00ACC1" data-original="#7CB8EB" class="" data-old_color="#7CB8EB"/><path d="M15,17s-3-2-10-2c0,0,5,8,9,8a2.8,2.8,0,0,0,3-3A3.7,3.7,0,0,0,15,17Z" style="fill:#00ACC1" data-original="#7CB8EB" class="" data-old_color="#7CB8EB"/><path d="M50,33s6,0,7-8c0,0-9,1-11,3a2.511,2.511,0,0,0,0,4C47.48,33.345,50,33,50,33Z" style="fill:#00ACC1" data-original="#7CB8EB" class="" data-old_color="#7CB8EB"/><path d="M50,18s-3.437,5.45-5,6a3.285,3.285,0,0,1-4-2,3.285,3.285,0,0,1,2-4C44.563,17.45,50,18,50,18Z" style="fill:#00ACC1" data-original="#7CB8EB" class="" data-old_color="#7CB8EB"/></g></g> </svg>
